<svg version="1.1" xmlns="http://www.w3.org/2000/svg" xmlns:xlink="http://www.w3.org/1999/xlink" width="1269" height="1280" viewBox="325.5,-205.29855,1269,1280"><defs><clipPath id="clip-1"><rect x="325.5" y="-205.29855" width="1269" height="1280" id="clip-1"/></clipPath></defs><g id="document" fill-opacity="0" fill="#ffffff" fill-rule="nonzero" stroke="#000000" stroke-width="0" stroke-linecap="butt" stroke-linejoin="miter" stroke-miterlimit="10" stroke-dasharray="" stroke-dashoffset="0" font-family="none" font-weight="none" font-size="none" text-anchor="none" style="mix-blend-mode: normal"><rect x="610" y="60.35714" transform="scale(1,1.4)" width="700" height="500" id="Shape 1 1" vector-effect="non-scaling-stroke"/></g><g fill="none" fill-rule="nonzero" stroke="none" stroke-width="1" stroke-linecap="none" stroke-linejoin="none" stroke-miterlimit="10" stroke-dasharray="" stroke-dashoffset="0" font-family="none" font-weight="none" font-size="none" text-anchor="none" style="mix-blend-mode: normal"><g><g id="stage"><g id="layer1 1"><g clip-path="url(#clip-1)" id="Group 1" fill="none" stroke="none" stroke-linecap="butt" stroke-linejoin="miter"/><path d="M1080.23022,533.83094" id="Path 2" fill="none" stroke="#000000" stroke-linecap="round" stroke-linejoin="round" visibility="hidden"/><path d="M900.94964,590.23381" id="Path 2" fill="none" stroke="#000000" stroke-linecap="round" stroke-linejoin="round" visibility="hidden"/><path d="M887.295,357.46035h-128.245c-6.687,0 -12.801,-3.778 -15.791,-9.76l-12.776,-25.55l12.776,-25.55c2.99,-5.982 9.103,-9.76 15.791,-9.76h128.246c6.687,0 12.801,3.778 15.791,9.76l12.775,25.55l-12.776,25.55c-2.99,5.982 -9.103,9.76 -15.791,9.76z" id="Path 2" fill="#ffc36e" stroke="none" stroke-linecap="butt" stroke-linejoin="miter"/><g id="Group 1" fill="#ffc36e" stroke="none" stroke-linecap="butt" stroke-linejoin="miter"><path d="M887.295,357.46035h-128.245c-6.687,0 -12.801,-3.778 -15.791,-9.76l-12.776,-25.55l12.776,-25.55c2.99,-5.982 9.103,-9.76 15.791,-9.76h128.246c6.687,0 12.801,3.778 15.791,9.76l12.775,25.55l-12.776,25.55c-2.99,5.982 -9.103,9.76 -15.791,9.76z" id="Path 1"/></g><path d="M1189.517,322.15135h-459.034c-4.875,0 -8.828,3.953 -8.828,8.828v44.138h476.69v-44.139c0,-4.875 -3.953,-8.827 -8.828,-8.827z" id="Path 2" fill="#eff2fa" stroke="none" stroke-linecap="butt" stroke-linejoin="miter"/><rect x="721.655" y="339.80685" width="476.69" height="17.655" id="Shape 1" fill="#e1e6f2" stroke="none" stroke-linecap="butt" stroke-linejoin="miter"/><path d="M1030.621,375.11735h132.414c4.875,0 8.828,-3.953 8.828,-8.828v-70.621c0,-4.875 -3.953,-8.828 -8.828,-8.828h-132.414c-4.875,0 -8.828,3.953 -8.828,8.828v70.621c0,4.875 3.953,8.828 8.828,8.828z" id="Path 2" fill="#eff2fa" stroke="none" stroke-linecap="butt" stroke-linejoin="miter"/><path d="M1145.379,322.15135h-97.103c-4.875,0 -8.828,15.89701 -8.828,35.50185v0c0,19.60484 3.953,35.50185 8.828,35.50185h97.103c4.875,0 8.828,-15.89701 8.828,-35.50185v0c0,-19.60886 -3.953,-35.50185 -8.828,-35.50185z" id="Path 2" fill="#c7cfe2" stroke="none" stroke-linecap="butt" stroke-linejoin="miter"/><path d="M912.97404,107.17617c-0.18985,0.46157 0.39194,1.46945 1.15282,1.9178c1.4265,0.90494 4.5346,4.69071 7.93263,9.7174c0.67705,0.99962 2.00768,2.87232 2.94778,4.16565c0.95485,1.25249 2.572,3.54543 3.64159,5.05501c1.04209,1.52187 2.36197,3.2966 2.93903,3.99826c0.5368,0.68539 1.50039,2.10525 2.08016,3.18255c0.59453,1.03646 1.42459,2.37889 1.84264,2.94599c0.41805,0.5671 2.40494,3.68851 4.41532,6.93645c2.01039,3.24796 4.3328,6.97328 5.16285,8.31572c0.84482,1.30159 2.0124,3.17855 2.63645,4.13331c1.27159,2.03607 4.55698,8.14079 7.26529,13.54381c1.57829,3.16675 1.86752,3.96262 1.82866,4.8364c-0.04357,0.56758 -0.00664,1.16773 0.04437,1.282c0.1275,0.28567 0.04768,0.69813 -1.40977,8.37149c-0.66804,3.38136 -1.29782,6.84844 -1.47221,7.71421c-0.14688,0.85349 -1.00677,4.76583 -1.89417,8.69045c-0.87466,3.95319 -1.78484,8.19632 -2.01153,9.46226c-0.23944,1.23737 -1.1644,5.52134 -2.0263,9.5031c-0.87466,3.95319 -1.67149,7.56334 -1.73856,8.00437c-0.24748,1.51503 -1.40384,6.75872 -2.12357,9.58078l-0.70699,2.85063l-1.73974,0.53666c-0.97353,0.33173 -2.05308,0.57373 -2.4194,0.56594c-3.09576,0.01136 -7.98698,0.13889 -8.17953,0.22483c-0.13754,0.06139 -0.993,0.06635 -1.91422,-0.00211c-0.92122,-0.06846 -1.88671,-0.01439 -2.16179,0.10838c-0.24757,0.1105 -0.57366,0.119 -0.67967,0.02928c-0.09126,-0.13057 -1.78742,-0.16148 -3.75867,-0.06962c-1.95649,0.05101 -4.18404,0.08597 -4.91672,0.0704c-0.73268,-0.01558 -2.29331,-0.03847 -3.48761,-0.05357c-1.1943,-0.0151 -2.70192,0.00686 -3.36883,0.06471c-0.69444,0.07012 -1.63241,0.11192 -2.11953,0.05526c-0.51462,-0.04438 -1.00374,-0.03163 -1.14128,0.02976c-0.11003,0.04911 -1.12853,0.05832 -2.29532,0.03095c-3.47284,-0.09441 -4.40209,0.11478 -7.73661,1.80855c-2.27242,1.11698 -3.51834,1.94711 -4.91382,3.25509c-4.6031,4.24692 -12.20318,10.72213 -13.26525,11.29892c-1.1446,0.61362 -1.21237,0.60961 -3.78285,-0.64121c-3.0791,-1.50343 -3.88094,-2.41311 -4.12599,-4.73605c-0.38269,-3.66608 -0.46933,-4.89497 -0.51841,-6.48318c-0.14997,-5.14028 -1.10019,-7.49108 -3.5459,-8.83184c-1.81835,-0.96987 -14.58077,-5.17441 -15.0484,-4.96569c-0.13754,0.06139 -0.29657,-0.07319 -0.41332,-0.26089c-0.0765,-0.17141 -1.31175,-0.64784 -2.75432,-0.99747c-3.90835,-0.9963 -5.90911,-0.82275 -6.00228,0.52063c-0.04086,0.94321 0.57314,2.24503 1.30653,2.70565c0.36031,0.21602 0.96891,0.7666 1.36345,1.20715c0.94812,1.01568 5.50611,4.42841 9.4508,6.98435c1.71905,1.11696 3.32808,2.28302 3.57835,2.54816c0.27578,0.32227 0.39596,1.33063 0.33702,2.89854c-0.0254,1.3474 0.00621,2.60082 0.08271,2.77223c0.19124,0.42851 -1.15866,1.09951 -2.53477,1.26832c-3.01053,0.35016 -5.7493,1.1614 -9.21531,2.70832c-8.50202,3.86307 -14.49336,7.29075 -15.79488,9.10491c-0.91912,1.26666 -2.45024,1.16208 -3.49633,-0.22096c-0.30127,-0.3794 -0.76561,-0.75456 -1.07492,-0.85632c-0.29657,-0.07319 -0.61461,-0.34233 -0.70387,-0.5423c-0.102,-0.22854 -0.28853,-0.35083 -0.45358,-0.27717c-0.63268,0.28238 -0.9448,-1.59954 -0.60947,-3.80468c0.60358,-3.96925 0.84293,-6.61115 0.87357,-10.01636c0.05221,-1.80471 0.08967,-3.56859 0.11246,-3.88708c0.01004,-0.34706 -0.35168,-1.45316 -0.79792,-2.45302c-0.62476,-1.39981 -0.93878,-1.80778 -1.33263,-1.80328c-0.61191,0.03329 -2.50384,2.07671 -2.3126,2.50522c0.0765,0.17141 -0.0248,0.3879 -0.24487,0.48613c-0.22007,0.09822 -1.70331,3.50085 -3.32739,7.54872c-4.55563,11.52269 -4.7495,12.12308 -4.51992,14.04182c0.18461,1.59625 0.26112,1.76765 1.36224,3.12613c0.65557,0.80367 1.36817,1.51336 1.55471,1.63566c0.17378,0.09374 1.3252,1.12145 2.51287,2.30427c1.17491,1.15426 2.50885,2.4431 2.95842,2.8591c0.43681,0.38743 0.86961,0.91369 0.97162,1.14223c0.11475,0.25711 0.37979,0.48139 0.55559,0.50571c0.81119,0.11757 1.12732,1.86067 0.72825,3.92296c-0.77536,3.8061 -1.00547,4.25138 -2.38087,4.86525c-0.68771,0.30693 -1.89203,0.63889 -2.68174,0.71729c-0.78971,0.07838 -2.99979,0.44813 -4.91129,0.82166c-1.92426,0.34495 -4.27189,0.77608 -5.21188,0.88729c-0.94,0.11121 -2.49389,0.32512 -3.42115,0.4649c-0.92725,0.13977 -2.14031,0.30434 -2.6717,0.37021c-1.83973,0.23871 -6.63216,2.58317 -8.11218,3.99739c-1.45251,1.40195 -4.35884,4.7203 -4.46416,5.07561c-0.03153,0.1511 -0.46694,0.65375 -0.95737,1.18096c-1.56858,1.65929 -10.7793,12.65599 -11.85472,14.1637c-0.56623,0.80084 -1.19821,1.52825 -1.36326,1.60192c-0.41262,0.18416 -5.3672,5.78698 -5.68386,6.40792c-0.14357,0.26962 -1.09762,0.86671 -2.17043,1.34553c-1.47269,0.69154 -1.99133,0.78598 -2.37714,0.51281c-0.25229,-0.19572 -2.43094,-1.38162 -4.8659,-2.6244c-2.42221,-1.21422 -5.2705,-2.71789 -6.35345,-3.29656c-1.92436,-1.05958 -5.97636,-3.19078 -9.20173,-4.80023c-0.93668,-0.47265 -2.95631,-1.52398 -4.52035,-2.36753c-1.56404,-0.84356 -4.06477,-2.15977 -5.60331,-2.94619c-1.53854,-0.78642 -3.86548,-2.00891 -5.17522,-2.72616c-1.297,-0.68868 -3.54342,-1.87859 -4.96118,-2.61614c-1.40502,-0.70898 -3.83797,-2.02119 -5.40201,-2.86474c-1.56404,-0.84356 -3.70244,-2.01315 -4.8129,-2.57955c-2.79326,-1.52823 -4.52506,-2.67375 -6.51387,-4.32121l-1.70901,-1.46401l-1.5287,-3.94255c-3.95661,-10.12163 -10.75666,-29.42287 -11.79622,-33.37818c-0.24295,-0.98783 -0.98586,-3.46541 -1.61804,-5.54706c-0.63218,-2.08165 -1.47307,-4.92661 -1.85226,-6.36749c-0.4067,-1.42861 -0.9946,-3.6328 -1.35229,-4.87773c-0.3577,-1.24494 -0.72213,-2.72667 -0.78858,-3.24513c-0.07921,-0.54704 -0.81409,-3.30226 -1.58721,-6.1432c-1.42879,-5.04914 -1.75969,-6.75138 -1.95113,-9.98896c-0.09406,-1.91072 -0.25781,-2.35151 -1.01197,-2.56305c-1.02322,-0.297 -2.04013,3.41136 -2.05931,7.35959c-0.01195,1.821 -0.00915,3.60117 -0.03194,3.91966c-0.01004,0.34706 0.04567,0.76755 0.12218,0.93895c0.0765,0.17141 0.1537,0.78786 0.17789,1.35943c0.00943,0.61243 0.12156,1.89844 0.2565,2.86597c0.10741,0.9798 0.21081,2.09842 0.24104,2.46177c0.00612,1.1963 1.24857,8.9322 1.75797,11.03439c0.26645,1.11437 0.62284,2.87376 0.79601,3.92697c0.17318,1.05323 0.52956,2.81261 0.79601,3.92697c0.23893,1.12665 0.79531,3.48194 1.20472,5.28617c0.4094,1.80424 1.08927,4.58403 1.53219,6.16775c0.44294,1.58373 1.12009,3.98789 1.46102,5.34307c3.17042,12.42522 4.93001,17.77206 8.58925,25.97094c3.04725,6.82762 3.56729,7.62327 6.33777,9.46999c0.66562,0.4566 2.70271,1.84271 4.52576,3.11879c1.82305,1.27609 3.8984,2.74789 4.65728,3.26564c0.75888,0.51775 1.72979,1.21493 2.19412,1.59008c0.45157,0.34658 2.40816,1.7001 4.32649,2.96792c1.93108,1.29639 3.66087,2.51132 3.88565,2.71932c0.21003,0.24885 0.54284,0.47715 0.72937,0.59945c0.58911,0.2852 3.22405,2.12389 5.5772,3.84856c1.21045,0.86434 3.2858,2.33615 4.61703,3.24935c1.35874,0.90094 3.71388,2.55618 5.28465,3.63654c1.54326,1.09265 2.99526,2.05473 3.18179,2.17702c0.40057,0.23231 2.94225,2.00986 5.20213,3.67338c2.27262,1.69207 9.9607,6.72251 11.95082,7.85552c2.41819,1.35305 3.44875,0.92736 2.59651,-1.05608c-0.57375,-1.28554 -0.10681,-1.93929 2.17636,-2.95829c1.12783,-0.50336 3.2802,-1.22418 4.77035,-1.58093c3.54122,-0.86107 8.8288,-3.42653 9.55535,-4.60724c0.27037,-0.42898 0.67626,-0.84995 0.92383,-0.96044c0.24757,-0.1105 1.59206,-1.53275 2.97008,-3.17551c1.39076,-1.61419 3.31223,-3.73931 4.24881,-4.67119c0.93658,-0.93188 2.42463,-2.62375 3.28472,-3.72703c0.87484,-1.14413 1.75842,-2.12086 2.00599,-2.23135c0.22007,-0.09822 0.55619,-0.45378 0.75678,-0.81737c0.21334,-0.33503 0.67626,-0.84995 1.03788,-1.14837c0.37437,-0.26986 1.53704,-1.5082 2.56418,-2.75455c1.0399,-1.21779 2.21933,-2.56638 2.55745,-2.99134c0.36564,-0.43726 1.57057,-1.72871 2.66347,-2.90163c1.12041,-1.18521 2.06301,-2.32533 2.13681,-2.52955c0.10129,-0.2165 1.17813,-0.83413 2.416,-1.38661c1.73301,-0.77346 2.92258,-1.06457 5.07364,-1.27095c1.51163,-0.1608 3.81499,-0.46938 5.05757,-0.71565c2.51267,-0.5048 4.25783,-0.29019 3.97742,0.48586c-0.1033,0.28591 -2.9775,2.49366 -6.37436,4.93468c-3.42437,2.4533 -6.35358,4.6856 -6.5374,4.93894c-0.18382,0.25333 -0.78228,0.76023 -1.3217,1.10375c-0.98357,0.67879 -4.13275,4.41384 -4.61174,5.48407c-0.13081,0.2982 -0.8916,1.25438 -1.6779,2.15344c-0.79905,0.87049 -1.54508,1.78584 -1.68864,2.05546c-0.34616,0.70263 -2.76337,4.00821 -4.08637,5.62643c-0.64675,0.76826 -1.95901,2.48445 -2.90763,3.83281c-0.94863,1.34834 -2.75734,3.79998 -4.02734,5.46304c-1.24249,1.6508 -3.11897,4.09841 -4.16287,5.45503c-1.00364,1.3729 -3.11897,4.09841 -4.68281,6.06392c-2.77682,3.53461 -2.81909,3.58773 -4.92246,4.49224l-2.11612,0.87593l-5.92859,-1.08812c-8.42589,-1.58367 -13.40978,-2.47678 -13.81637,-2.50086c-0.39385,0.00449 -4.91812,-0.8197 -7.09135,-1.25433c-1.99745,-0.41032 -3.24073,-0.60911 -3.81036,-0.62893c-0.27107,-0.01604 -1.63512,-0.26371 -3.02468,-0.5685c-1.34929,-0.2885 -2.71336,-0.53615 -3.03944,-0.52765c-0.29857,-0.00377 -3.68959,-0.58006 -7.53821,-1.29469c-3.84861,-0.71464 -9.7497,-1.81504 -13.11322,-2.4036c-3.34876,-0.6294 -8.04881,-1.4779 -10.38509,-1.90828c-2.34902,-0.45895 -4.84834,-0.88509 -5.51125,-0.96606c-2.16249,-0.33667 -5.77498,-1.70481 -7.41352,-2.78918c-1.87808,-1.25153 -10.23607,-10.81334 -12.19546,-13.94703c-0.42878,-0.66508 -0.91259,-1.3056 -1.08637,-1.39934c-0.21404,-0.11002 -0.65959,-0.66484 -1.05012,-1.24422c-0.64955,-1.01191 -1.53663,-2.26037 -5.58551,-7.78451c-0.94009,-1.29333 -2.74848,-4.01479 -4.06033,-6.06716c-1.31184,-2.05238 -3.2095,-4.9738 -4.22407,-6.50795c-1.04209,-1.52187 -3.81879,-5.96942 -6.23045,-9.89472c-9.51312,-15.6238 -14.59686,-24.79703 -18.09035,-32.62451c-2.51375,-5.55838 -2.64327,-5.77464 -3.10016,-5.46795c-0.27709,0.19218 -0.5092,0.70687 -0.52326,1.19275c-0.01405,0.48589 -0.08042,1.37195 -0.0985,1.99666c-0.03082,0.59614 0.06986,1.33914 0.19736,1.62481c0.1275,0.28567 0.1792,0.84498 0.12689,1.24517c-0.16365,0.96374 0.15179,2.2618 1.47718,6.1923c1.81662,5.25288 3.91233,10.24416 5.03293,11.86802c0.57305,0.8405 2.52912,4.55805 4.34966,8.26756c5.02812,10.15727 10.54737,20.23238 15.17944,27.65448c0.98708,1.54642 2.60692,4.21499 3.60273,5.92881c3.66046,6.27988 8.52203,14.2162 9.13935,14.93417c0.34154,0.39569 1.27762,1.82784 2.06741,3.15399c0.7898,1.32615 1.64937,2.58689 1.8614,2.76632c0.25229,0.19572 0.8146,0.93824 1.28164,1.68902c1.37559,2.19521 5.16075,6.9806 6.28867,7.88178c1.73652,1.45174 4.95245,2.44874 19.00102,5.83945c7.80596,1.8946 9.74638,2.3989 12.29068,3.14754c1.56133,0.46793 3.59703,0.96395 4.50349,1.07325c0.90646,0.10931 1.90419,0.34917 2.22423,0.54891c0.32005,0.19974 1.34328,0.49674 2.28799,0.69174c0.9447,0.19501 2.56307,0.56897 3.65405,0.86998c1.05073,0.28472 3.13942,0.8256 4.62225,1.19154c8.9372,2.21192 15.90447,4.00122 16.81765,4.34733c0.57837,0.18723 1.18626,0.29276 1.2963,0.24364c0.13754,-0.06139 0.58239,0.04839 1.03798,0.25616c0.42808,0.22003 1.197,0.39073 1.68412,0.44739c0.50187,0.01582 1.91693,0.37774 3.15419,0.78476c1.25202,0.36618 2.37051,0.65491 2.48054,0.6058c0.13754,-0.06139 1.13526,0.17849 2.25174,0.53663c1.10374,0.32959 2.37051,0.65491 2.84487,0.683c0.44686,0.04037 2.04171,0.28779 3.52655,0.58431c1.47208,0.26796 4.24849,0.5019 6.16071,0.57343c3.89419,0.07765 4.41886,-0.22503 3.40629,-1.82858c-0.83206,-1.27302 -0.32888,-1.77166 4.23074,-4.04648l3.91218,-1.95159l5.15307,-7.30152c9.25821,-13.10762 12.58782,-17.91669 12.86421,-18.55391c0.11806,-0.32676 0.37166,-0.64548 0.5092,-0.70687c0.13754,-0.06139 1.81744,-2.28423 3.69995,-4.9401c5.17857,-7.2444 5.3624,-7.49774 7.27582,-9.34519c1.54979,-1.47962 2.19924,-1.87225 5.17012,-3.19818c2.84608,-1.23598 6.4886,-2.31355 7.11998,-2.08147c0.09327,0.06114 -0.25962,0.52697 -0.79232,1.1073c-0.51794,0.53948 -1.2197,1.33229 -1.58533,1.76954c-0.35088,0.39642 -1.24519,1.27517 -1.94295,1.92915c-1.93692,1.72092 -5.8724,6.35503 -6.88608,8.07499c-1.05796,1.8425 -5.11794,10.78017 -6.58572,14.58698c-0.58631,1.49496 -1.99105,4.99958 -3.13013,7.76899c-3.59435,8.79837 -11.17391,30.98882 -14.61105,42.80025c-3.49818,12.04421 -8.39007,31.90463 -8.90842,36.21265c-0.05632,0.539 -0.3045,1.60899 -0.51714,2.38906c-0.19788,0.73922 -0.52788,2.29108 -0.72306,3.40592c-0.19517,1.11485 -0.66131,3.61817 -1.04361,5.57022c-0.38231,1.95204 -0.78069,4.45938 -0.89333,5.53739l-0.20653,1.97636l1.95748,4.60763c1.77697,4.27709 5.66702,12.47572 15.81522,33.36586c2.19229,4.46857 6.74064,13.8465 10.1227,20.83301c11.73722,24.15486 14.66832,29.83531 16.2673,31.34842c0.44956,0.416 1.64595,1.76622 2.71085,2.9696c1.03737,1.21565 2.21228,2.36991 2.6001,2.57366c1.47077,0.78241 1.27882,-0.09115 -1.33492,-5.94748c-2.191,-4.98302 -5.3571,-13.33346 -8.78633,-23.38215c-0.64021,-1.80401 -3.26681,-9.09344 -5.91218,-16.2032c-2.64536,-7.10977 -5.22297,-14.21553 -5.72092,-15.77469c-0.98717,-2.95096 -2.64406,-7.62421 -8.66697,-24.22336c-3.06883,-8.42812 -3.62852,-10.19954 -3.79035,-12.11427c-0.11413,-1.2166 -0.11624,-2.55172 0.00382,-2.94789c0.12007,-0.39617 0.17238,-0.79636 0.12139,-0.91062c-0.1275,-0.28567 0.48683,-4.15694 1.15085,-7.39948c0.26695,-1.24966 0.57146,-2.85865 0.68681,-3.56103c0.56874,-3.23427 3.80862,-15.26597 6.57431,-24.51671c4.97329,-16.57372 22.60444,-67.09384 24.49899,-70.16618c0.47096,-0.79257 1.39478,-1.75302 2.05899,-2.18649c0.63671,-0.42119 1.42771,-1.01404 1.74908,-1.32876c1.37199,-1.43453 7.1996,-5.303 7.36536,-4.93162c0.051,0.11427 -0.79563,1.69115 -1.61947,2.94955c-0.56823,0.87025 -2.16893,3.64013 -2.81497,4.85344c-0.33141,0.66178 -1.23505,2.33264 -1.9804,3.69302c-1.64899,3.03124 -4.21218,10.44443 -4.50454,13.04149c-0.13814,1.02088 -0.28031,2.18058 -0.33262,2.58077c-0.0248,0.3879 -0.06837,0.95548 -0.0764,1.23313c0.0242,0.57159 -0.0445,6.70016 -0.08639,12.37141c-0.022,2.16807 -0.0962,6.14085 -0.13225,8.79481c-0.25615,12.13886 -0.40549,26.21701 -0.30459,29.76907c0.01616,0.84923 0.06254,2.06182 0.05722,2.7151c0.02218,0.641 0.04036,1.42082 0.03232,1.69848c-0.02409,0.83295 0.43168,3.84977 0.98605,6.27446c0.32216,1.53486 2.14009,6.27329 6.15974,16.09271c3.13318,7.61147 6.58983,16.24333 7.68703,19.14518c5.16053,13.55822 6.76772,17.60277 8.83724,22.09188c3.84578,8.32116 10.38302,20.75108 11.35193,21.51768c0.22478,0.208 1.5789,2.20725 2.96523,4.50043c1.41385,2.28091 2.76796,4.28016 2.98,4.45959c0.21203,0.17944 0.86359,1.12192 1.43262,2.10125c0.54153,0.9916 1.29709,2.09322 1.65138,2.51747c0.34154,0.39569 1.22861,1.64416 1.97143,2.71721c1.25011,1.84011 2.28145,3.264 5.403,7.52338c0.67906,0.93021 1.67015,2.3378 2.21771,3.12117c0.50729,0.76707 1.38363,1.91756 1.93519,2.56209c0.5113,0.62825 1.66543,2.03159 2.55653,3.14123c2.64779,3.27179 5.1996,6.10681 6.81334,7.57909c1.90428,1.7537 4.56944,3.95575 5.23706,4.34294c0.29455,0.1426 0.85214,0.5789 1.27621,0.93777c0.94139,0.77888 4.50288,2.03275 4.85175,1.70576c0.39114,-0.38011 -0.33159,-2.14729 -1.26898,-3.06499c-1.34668,-1.3174 -3.09063,-3.451 -3.40937,-4.16518c-0.16575,-0.37138 -0.59654,-0.96704 -0.92534,-1.33417c-0.34355,-0.32629 -1.29638,-1.64817 -2.12846,-2.92119c-0.7918,-1.25673 -2.19692,-3.37026 -3.04173,-4.67184c-1.71714,-2.5909 -4.24957,-6.56508 -6.70149,-10.50668c-0.88306,-1.38729 -1.81914,-2.81944 -2.08016,-3.18255c-0.28853,-0.35083 -1.26286,-1.86869 -2.18417,-3.34168c-0.8938,-1.48527 -2.05064,-3.26425 -2.55994,-3.96191c-0.46904,-0.68136 -2.56667,-4.1987 -4.64753,-7.8263c-2.06811,-3.59902 -3.84096,-6.61042 -3.93423,-6.67156c-0.91791,-0.65232 -9.19115,-16.898 -9.59855,-18.77166c-0.16846,-0.74701 -0.87714,-3.00006 -1.56433,-5.05715c-2.11861,-6.07733 -4.02518,-11.97522 -4.39833,-13.62434c-0.21946,-0.86127 -0.77513,-2.77153 -1.23483,-4.24499c-1.00866,-3.14691 -2.50922,-8.06123 -3.48837,-11.28984c-0.3577,-1.24494 -1.06436,-3.5674 -1.58983,-5.11429c-0.49795,-1.55917 -1.31536,-4.27757 -1.83479,-6.03271c-1.56704,-5.43278 -3.03539,-10.05317 -3.59437,-11.37955c-0.867,-1.94258 -2.07983,-8.35564 -1.80214,-9.50732c0.09055,-0.31448 0.06968,-1.46993 0.00653,-2.57227c-0.10681,-1.93929 0.0402,-10.77493 0.54204,-30.93704c0.1251,-5.26305 0.1966,-9.61146 0.14561,-9.72573c-0.03825,-0.0857 0.02339,-1.27799 0.13133,-2.66221c0.12068,-1.35567 0.15813,-3.11953 0.09971,-3.91565c-0.08463,-1.29828 0.78872,-4.73703 1.25635,-4.94574c0.24757,-0.1105 3.75166,-4.38079 5.31952,-6.48511c2.18911,-2.92973 2.34011,-2.51751 0.94018,2.69786c-2.32828,8.67866 -2.19867,10.29946 1.28458,15.66494c1.2226,1.8524 2.51969,3.94561 4.69783,7.49554c0.64955,1.01191 1.81914,2.81944 2.6002,3.97819c0.78107,1.15875 2.17343,3.2437 3.084,4.61872c0.93808,1.36274 1.83992,2.57037 2.02645,2.69266c0.17378,0.09374 0.60659,0.61997 0.95886,1.11366c0.74282,1.07305 2.18548,2.82723 4.85004,5.98877c1.09039,1.2605 2.09823,2.55785 2.26398,2.92922c0.153,0.34281 0.5878,0.79965 0.93537,0.98711c0.36031,0.21602 0.75687,0.58716 0.85887,0.81571c0.11475,0.25711 0.78508,1.01992 1.48292,1.77048c1.807,1.83138 2.61084,2.67164 4.9419,5.15983c1.1199,1.17882 2.18879,2.24336 2.39008,2.32482c0.18652,0.12229 0.42407,0.35886 0.52607,0.5874c0.08925,0.19997 1.26416,1.35423 2.62762,2.56138c1.35071,1.17858 2.50012,2.27571 2.56387,2.41854c0.0765,0.17141 0.58982,0.73023 1.15814,1.26452c0.56833,0.53428 1.53322,1.4397 2.12704,2.03112c0.59384,0.59141 1.32319,1.19086 1.61776,1.33346c0.26705,0.15488 1.36746,1.06833 2.38537,2.0186c1.54798,1.39885 6.1912,5.15038 8.1988,6.61817c0.23954,0.16715 1.14269,0.86032 2.02033,1.49635c4.61101,3.45759 9.25012,5.94341 11.36362,6.09638c1.40833,0.12512 2.30064,-0.68422 2.7467,-2.49342c0.92565,-3.83892 3.26787,-5.0213 6.17387,-3.16656c1.97334,1.24326 3.54804,0.78027 4.53352,-1.37245c0.55077,-1.20504 1.71717,-6.79578 1.51316,-7.25286c-0.03825,-0.0857 0.04759,-0.7064 0.18844,-1.35164c0.12811,-0.67382 0.31113,-2.77672 0.38011,-4.6917c0.09648,-1.92725 0.17621,-3.74424 0.21175,-4.03416c0.04157,-0.49816 0.03526,-4.50353 -0.0306,-5.98149c-0.00271,-0.37563 -0.0283,-1.83729 -0.02839,-3.24183c-0.00009,-1.40454 -0.13853,-4.59726 -0.2843,-7.06729c-0.17327,-2.45776 -0.32306,-4.78896 -0.32576,-5.1646c-0.11756,-2.03727 -0.42776,-5.39313 -0.57072,-6.08301c-0.06848,-0.44905 -0.15841,-1.09407 -0.16113,-1.46969c-0.04708,-1.65762 -1.29966,-10.451 -1.99569,-14.08002c-0.43761,-2.23701 -0.82422,-4.35975 -0.83968,-4.76394c-0.04638,-1.21259 -1.83227,-8.46614 -3.04763,-12.44577c-0.62143,-1.98367 -1.32409,-4.44497 -1.57979,-5.46136c-0.28321,-1.00412 -1.09388,-3.48572 -1.83609,-5.51826c-0.71471,-2.04482 -1.69514,-4.75896 -2.17361,-6.05277c-0.72745,-2.07338 -0.99922,-2.53447 -2.09763,-3.51734c-2.18206,-2.00656 -4.47748,-3.38015 -8.17921,-4.94827c-4.60017,-1.95507 -5.01821,-2.52217 -1.75468,-2.23157c0.93396,0.09703 3.45809,0.13526 5.61787,0.09629c3.4641,-0.07299 6.2875,0.41406 6.60625,1.12825c0.03825,0.0857 1.2467,1.01946 2.66918,2.06322c1.42248,1.04377 3.49382,2.65439 4.56673,3.58012c1.10042,0.91345 2.50614,2.06747 3.14424,2.53635c0.6106,0.48116 2.70743,2.14892 4.64323,3.75153c1.95056,1.56177 3.70184,2.97266 3.91587,3.08267c0.21404,0.11002 1.38223,1.02748 2.64166,2.0755c1.2467,1.01946 4.37819,3.52724 6.96685,5.55788c2.61617,2.01836 5.20283,4.11841 5.78592,4.61185c0.56833,0.53428 1.24468,1.08886 1.48423,1.25602c1.63652,1.15379 6.38447,5.50948 7.18229,6.55798c0.50929,0.69766 2.16269,3.14572 3.60405,5.41436c1.46887,2.25636 3.14374,4.90038 3.76778,5.85515c0.62405,0.95476 1.69164,2.53377 2.40896,3.54968c0.70457,0.98735 2.30293,3.45997 3.54903,5.43891c1.24609,1.97895 4.0798,6.33253 6.33174,9.67822c2.21168,3.3294 5.01989,7.62586 6.24048,9.54765c1.20784,1.89325 2.85921,4.41072 3.64028,5.56947c6.48203,9.64541 10.77135,18.59081 15.30652,31.70871c0.57445,1.73058 1.81461,5.32229 2.75479,8.02015c0.94018,2.69786 2.41256,7.17941 3.30847,9.9998c0.85566,2.8041 2.17703,6.87343 2.88771,9.05709c0.72545,2.1428 1.33212,4.16731 1.38984,4.51839c0.04498,0.32251 0.55366,1.97966 1.12812,3.71023c1.88911,5.5631 3.92126,13.22062 4.44551,16.6865c0.36583,2.37181 0.66982,3.12684 1.35622,3.33436c1.33253,0.39875 2.14946,-3.90551 2.08724,-11.14042c-0.03503,-2.0741 -0.1573,-4.41758 -0.29825,-5.17687c-0.32286,-1.97989 -0.75917,-4.73134 -0.94308,-5.88255c-0.06445,-0.58787 -0.30338,-1.71452 -0.49734,-2.51866c-0.20671,-0.83271 -0.57987,-2.48184 -0.8168,-3.67789c-0.24968,-1.22463 -0.65908,-3.02886 -0.9698,-4.0207c-0.28321,-1.00412 -0.80936,-2.99605 -1.16104,-4.44921c-1.42819,-6.00863 -1.80738,-7.44952 -2.92947,-11.36798c-0.64091,-2.24905 -1.66703,-5.73074 -2.28847,-7.71441c-0.59393,-1.99595 -1.64956,-5.39596 -2.27973,-7.54702c-0.95564,-3.10205 -2.14611,-6.06505 -5.87111,-14.33734c-4.029,-9.02732 -5.27378,-11.52073 -9.22145,-18.66589c-2.54388,-4.51719 -5.04951,-8.9487 -5.6078,-9.83003c-0.55829,-0.88134 -3.70141,-6.74121 -6.95527,-12.99702c-6.46948,-12.4259 -8.63557,-16.39229 -10.14671,-18.59553c-1.77416,-2.49694 -5.14459,-6.13136 -7.33469,-7.86027c-0.43681,-0.38743 -2.08208,-1.70862 -3.64683,-2.99721c-1.56475,-1.28859 -3.10599,-2.45065 -3.44081,-2.60955c-0.32206,-0.13032 -0.66562,-0.4566 -0.76762,-0.68515c-0.102,-0.22854 -1.01589,-1.01969 -1.99754,-1.81485c-1.00916,-0.78288 -3.22476,-2.56893 -4.96329,-3.95126c-1.71102,-1.3946 -3.87361,-3.13579 -4.7895,-3.85753c-0.91589,-0.72174 -2.14985,-1.71262 -2.70542,-2.21833c-0.55559,-0.50571 -3.27576,-2.68321 -6.02345,-4.84841c-2.74769,-2.16521 -6.14422,-4.89729 -7.52243,-6.06359c-6.72128,-5.59896 -10.08489,-7.59206 -16.11418,-9.42316c-2.98713,-0.92784 -8.65339,-2.16729 -11.79011,-2.61727c-0.66291,-0.08097 -2.06923,-0.27552 -3.16423,-0.4377c-1.2983,-0.17422 -1.95719,-0.39403 -1.86864,-0.63909c0.22137,-0.61267 2.00137,-1.13304 9.76146,-2.81504c2.52742,-0.54564 4.73621,-0.40092 7.00542,0.47049c3.49171,1.31928 21.08983,7.78486 28.10276,10.34173c11.21856,4.07139 36.02156,13.96739 44.88106,17.92687c11.66079,5.21007 15.70408,7.17389 20.18889,9.83135c1.26748,0.77037 2.50945,1.4836 2.751,1.58134c1.352,0.66412 4.5848,2.95541 5.45442,3.86909c2.07003,2.12508 2.4203,2.68817 14.53974,23.48646c3.49271,5.97791 7.12967,12.13125 8.08923,13.68995c0.95957,1.5587 3.19744,5.39028 4.97903,8.56905c1.76884,3.15021 3.59269,6.27588 4.04898,6.92868c0.45629,0.6528 1.61112,2.50119 2.55392,4.17014c3.79871,6.66354 9.88357,16.8973 10.52439,17.7418c0.37979,0.48139 2.26137,3.95813 4.12217,7.68394c1.87355,3.75438 3.57262,6.96999 3.74439,7.13312c0.61934,0.64855 0.90576,-0.33573 0.71844,-2.30761c-0.1034,-1.11862 -0.40547,-3.3476 -0.64512,-4.91928l-0.43229,-2.89028l-8.87871,-20.18918c-4.86447,-11.12102 -12.94124,-28.996 -17.95329,-39.70856c-6.93931,-14.95684 -9.23431,-20.09899 -9.73899,-21.89496c-0.45368,-1.68171 -0.96368,-2.8244 -1.74273,-4.05258c-2.57269,-3.99048 -3.64561,-4.91619 -8.48802,-7.41406c-1.43053,-0.76612 -2.9543,-1.59339 -3.31463,-1.80941c-0.37306,-0.24459 -1.56203,-0.91297 -2.64499,-1.49163c-1.08295,-0.57866 -3.32737,-1.83799 -5.01218,-2.73041c-3.67492,-2.02544 -8.77164,-4.64961 -11.36965,-5.88814c-1.03195,-0.4644 -3.49442,-1.6949 -5.47581,-2.66052c-17.05277,-8.42188 -45.40049,-19.68201 -63.35281,-25.16732c-1.99142,-0.61856 -4.85778,-1.49751 -6.35134,-1.96143c-8.55882,-2.6206 -9.8531,-2.93365 -15.3764,-3.48324c-0.86621,-0.09301 -6.04726,0.19813 -9.01552,0.49516c-3.36412,0.37093 -4.92675,0.41745 -5.02875,0.18891c-0.14025,-0.31424 3.41361,-2.55128 6.81791,-4.31045c4.61664,-2.36878 6.11151,-2.41932 22.97326,-1.00358c3.60235,0.31067 9.44099,0.75378 12.99033,1.01961c3.5641,0.22497 6.85512,0.5033 7.34224,0.55996c0.47437,0.0281 2.16651,0.19783 3.7654,0.30642c1.59888,0.1086 3.80565,0.32271 4.87515,0.42777c3.11323,0.32343 5.10726,-0.08692 8.38876,-1.82555c3.36402,-1.77546 4.0987,-1.8293 4.73621,-0.40092c0.24225,0.54278 0.70255,1.05676 1.03939,1.14624c0.53811,0.17092 0.9145,-0.16834 2.64942,-2.41575c3.12971,-4.00042 5.12757,-7.35867 8.16854,-13.9231c0.59103,-1.18875 2.24132,-4.73444 3.75678,-7.84312c1.47521,-3.12497 3.87284,-8.10048 5.27627,-11.09064c1.40342,-2.99016 2.77532,-5.82922 3.02019,-6.31534c0.24487,-0.48613 1.8784,-3.92156 3.60047,-7.60207c3.50118,-7.45499 5.36482,-11.3357 6.68842,-13.91341c0.50247,-0.94368 1.53023,-3.14953 2.34062,-4.88153c0.82515,-1.77285 1.80861,-3.85616 2.21181,-4.65275c1.45442,-2.87588 3.41464,-7.27933 4.2686,-9.57891c1.21217,-3.41867 1.15366,-5.61933 -0.35837,-11.07666c-0.29395,-1.10209 -0.73086,-2.89406 -0.9698,-4.0207c-0.52284,-2.57579 -1.46774,-5.57987 -3.59708,-11.75517c-3.13328,-9.01599 -4.04595,-11.72613 -4.62712,-13.69351c-2.09049,-7.04909 -5.8451,-16.64424 -16.4807,-41.80463c-3.55595,-8.48478 -6.99162,-14.55666 -10.14801,-18.08108c-1.67146,-1.82335 -3.8998,-3.63797 -4.59022,-3.70667c-1.15002,-0.13763 -0.92855,0.65423 1.26506,4.60834c1.84534,3.32162 2.69959,5.23564 6.23947,14.27572c2.24941,5.77913 4.45656,11.61139 4.94579,13.00317c2.27632,6.72635 3.99767,11.98749 4.61708,14.04058c0.3577,1.24494 1.71734,5.39997 2.96422,9.22848c1.25963,3.85708 2.63472,8.41632 3.0609,10.1103c0.41141,1.73483 1.21677,4.8697 1.76642,6.98819c3.27642,12.51494 4.93099,22.43071 4.37571,26.13859c-0.31656,2.02547 -0.76602,3.014 -4.10827,9.19902c-0.34415,0.63321 -1.07673,2.02217 -1.63624,3.05981c-0.5595,1.03765 -1.53092,2.70449 -2.14343,3.69728c-0.99491,1.5403 -2.15418,3.5993 -6.71071,11.86788c-0.4582,0.82114 -0.83388,1.60545 -0.87816,1.72799c-0.04428,0.12253 -0.35691,0.60464 -0.68228,1.05818c-0.36564,0.43726 -0.76682,1.16444 -0.8889,1.63001c-0.14959,0.47786 -0.39244,0.89457 -0.52998,0.95595c-0.13754,0.06139 -0.60648,0.78455 -0.99692,1.60971c-0.39043,0.82516 -1.36587,2.63083 -2.20647,3.99948c-0.80035,1.38495 -2.29975,3.93833 -3.28794,5.71543c-1.00094,1.74854 -2.07366,3.63187 -2.40306,4.22424c-0.34214,0.5638 -0.74333,1.29098 -0.95667,1.626c-0.19858,0.29417 -0.61453,1.0622 -0.95867,1.69541c-0.31665,0.62093 -1.01771,1.85879 -1.54568,2.74533c-0.52798,0.88655 -1.65772,2.86385 -2.50234,4.37133c-0.87212,1.51975 -2.11592,3.685 -2.78747,4.84116c-0.67154,1.15617 -1.80329,3.20288 -2.52112,4.551l-1.27933,2.45517l-2.54752,1.23976c-2.28719,1.15782 -2.64279,1.24802 -4.15914,1.1026c-0.89371,-0.08073 -1.78944,-0.09206 -1.95448,-0.0184c-0.16505,0.07367 -0.89773,0.05808 -1.64114,-0.05547c-1.09501,-0.16219 -5.4743,-0.3659 -11.75508,-0.54317c-0.77294,-0.03187 -1.77467,-0.13291 -2.24703,-0.23041c-0.48511,-0.12607 -2.09874,-0.19382 -3.63388,-0.15957c-1.53513,0.03424 -3.48761,-0.05357 -4.33904,-0.18743c-0.85144,-0.13386 -2.07124,-0.2061 -2.6979,-0.13196c-0.63942,0.04557 -2.65965,-0.04626 -4.52759,-0.24031c-1.85519,-0.16548 -3.42656,-0.28636 -3.53659,-0.23725c-0.08252,0.03683 -1.96724,-0.04697 -4.20352,-0.1794c-2.19603,-0.11614 -4.80266,-0.11754 -5.79768,0.01822c-0.9675,0.12349 -2.18058,0.28806 -2.71195,0.35393c-0.50389,0.0536 -3.97733,0.91867 -7.72586,1.90654c-7.15622,1.92636 -8.15123,2.06212 -8.45722,1.3765c-0.204,-0.45708 1.19681,-2.41834 1.96704,-2.7621c0.60518,-0.2701 5.0097,-4.22284 5.77049,-5.17904c0.31062,-0.4127 1.41697,-1.11202 2.68234,-1.67677c1.7055,-0.76119 2.48447,-0.93755 3.99008,-0.89012c2.50936,0.07908 2.86295,0.0583 5.25755,-0.11974c1.1433,-0.09917 2.25707,-0.11665 2.4456,-0.06376c0.44485,0.10978 4.30481,-0.0371 5.35484,-0.19741c0.43611,-0.05762 1.29358,-0.13199 1.91824,-0.13671c3.96397,0.01225 5.96273,-0.09189 8.39961,-0.32304c1.33384,-0.1157 2.70794,-0.2151 3.07428,-0.20731c4.34306,0.0486 7.90445,-0.10205 8.48213,-0.35987c0.30259,-0.13506 0.7642,-0.13553 1.03326,-0.05006c0.77766,0.33808 8.48394,-3.23835 10.14176,-4.69767c0.7105,-0.62542 2.26099,-1.66001 3.43309,-2.28591c2.51127,-1.39487 3.16143,-1.34246 4.18875,0.22024c0.94882,1.46072 1.62578,1.05582 2.1852,-1.38637c0.46282,-1.91947 1.2132,-8.14673 1.4156,-11.38879c0.03886,-0.87379 0.11596,-1.66188 0.16023,-1.78441c0.04428,-0.12253 0.11737,-0.7718 0.15019,-1.43735c0.0744,-1.16372 0.18032,-2.47854 0.66775,-7.59497c0.11667,-1.21684 0.33252,-3.98529 0.50279,-6.11677c0.26344,-3.47486 0.94997,-11.2495 1.11292,-12.65829c0.03554,-0.28993 0.177,-1.89467 0.26546,-3.54428c0.11596,-1.66188 0.25271,-3.57283 0.32781,-4.29152c0.08784,-0.69011 0.21053,-2.11518 0.28091,-3.14008c0.09789,-1.03716 0.24337,-2.78073 0.37076,-3.89959c0.29165,-3.0421 1.06122,-13.2176 0.97196,-13.41756c-0.03825,-0.0857 -0.04969,-0.62872 -0.04638,-1.21259c-0.01626,-2.25377 -2.01208,-8.35164 -3.22995,-9.89781c-0.82534,-1.03622 -2.85048,-4.24332 -6.24521,-9.85388c-0.98507,-1.61583 -2.37542,-3.7702 -3.09274,-4.78611c-0.73006,-1.04448 -2.46397,-3.52513 -3.83083,-5.55295c-1.36686,-2.02782 -2.89475,-4.1208 -3.39532,-4.65106c-0.47305,-0.54254 -1.45341,-1.85215 -2.1412,-2.94976c-0.6878,-1.09761 -1.33936,-2.04009 -1.45812,-2.15837c-0.13352,-0.07743 -1.04811,-1.31363 -2.0392,-2.72122c-1.79966,-2.55407 -3.47584,-4.68364 -4.74,-6.03788c-0.3543,-0.42426 -1.61444,-1.91732 -2.76656,-3.39008c-2.54177,-3.18208 -6.64428,-7.79158 -7.95471,-8.95387c-0.27779,-0.25286 -1.01589,-1.01969 -1.60771,-1.68052c-1.53794,-1.74592 -5.07944,-5.09844 -6.0121,-5.70993c-0.42607,-0.28945 -1.55802,-1.05179 -2.53094,-1.67957c-2.47592,-1.70412 -4.49686,-2.24099 -4.80879,-1.31384z" id="Path 1 1" fill="#000000" stroke="none" stroke-linecap="butt" stroke-linejoin="miter"/><path d="M1180.69,357.46135h-277.027c-3.343,0 -6.4,1.90953 -7.895,4.93202l-10.336,20.89562c-2.99,6.047 -9.105,9.86606 -15.791,9.86606h-128.246c-6.687,0 -12.801,-3.81905 -15.791,-9.86606l-10.337,-20.89562c-1.495,-3.02249 -4.552,-4.93202 -7.895,-4.93202h-3.372c-9.751,0 -17.655,7.98989 -17.655,17.84684v339.09309c0,9.85696 7.904,17.84684 17.655,17.84684h476.69c9.751,0 17.655,-7.98989 17.655,-17.84684v-339.09309c0,-9.85696 -7.904,-17.84684 -17.655,-17.84684z" id="Path 2" fill="#ffd782" stroke="none" stroke-linecap="butt" stroke-linejoin="miter"/><path d="M1171.862,593.79196h-459.034c-4.875,0 -8.828,-3.953 -8.828,-8.828v0c0,-4.875 3.953,-8.828 8.828,-8.828h459.034c4.875,0 8.828,3.953 8.828,8.828v0c0,4.876 -3.953,8.828 -8.828,8.828z" id="Path 2" fill="#ffc36e" stroke="none" stroke-linecap="butt" stroke-linejoin="miter"/><path d="M1145.3795,419.90739h-97.103c-4.875,0 -8.828,-3.953 -8.828,-8.828v0c0,-4.875 3.953,-8.828 8.828,-8.828h97.103c4.875,0 8.828,3.953 8.828,8.828v0c0,4.876 -3.953,8.828 -8.828,8.828z" id="Path 2" fill="#d7deed" stroke="none" stroke-linecap="butt" stroke-linejoin="miter"/></g></g></g></g></svg>